<svg width="31" height="29" viewBox="0 0 31 29" fill="none" xmlns="http://www.w3.org/2000/svg">
<rect opacity="0.2" x="0.833984" width="29.901" height="29" rx="5" fill="white"/>
<path d="M22.4033 6.979C22.1313 6.979 21.8654 7.05994 21.6392 7.21157C21.413 7.36321 21.2367 7.57873 21.1326 7.8309C21.0285 8.08306 21.0012 8.36053 21.0543 8.62822C21.1074 8.89592 21.2384 9.14181 21.4308 9.33481C21.6231 9.5278 21.8682 9.65924 22.135 9.71248C22.4018 9.76573 22.6784 9.7384 22.9297 9.63395C23.181 9.5295 23.3958 9.35263 23.547 9.12569C23.6981 8.89875 23.7788 8.63194 23.7788 8.359C23.7788 7.993 23.6339 7.64199 23.3759 7.38319C23.118 7.12439 22.7681 6.979 22.4033 6.979V6.979ZM27.6759 9.762C27.6536 8.80784 27.4755 7.86381 27.1486 6.9675C26.8572 6.2006 26.4036 5.50617 25.819 4.932C25.2515 4.34254 24.5577 3.8903 23.7902 3.6095C22.8992 3.27158 21.9573 3.08879 21.005 3.069C19.79 3 19.4003 3 16.2826 3C13.1649 3 12.7752 3 11.5602 3.069C10.6079 3.08879 9.66596 3.27158 8.77496 3.6095C8.00893 3.89315 7.31577 4.34499 6.74618 4.932C6.15867 5.50145 5.70792 6.19751 5.42805 6.9675C5.09125 7.86144 4.90906 8.80653 4.88933 9.762C4.82056 10.981 4.82056 11.372 4.82056 14.5C4.82056 17.628 4.82056 18.019 4.88933 19.238C4.90906 20.1935 5.09125 21.1386 5.42805 22.0325C5.70792 22.8025 6.15867 23.4985 6.74618 24.068C7.31577 24.655 8.00893 25.1069 8.77496 25.3905C9.66596 25.7284 10.6079 25.9112 11.5602 25.931C12.7752 26 13.1649 26 16.2826 26C19.4003 26 19.79 26 21.005 25.931C21.9573 25.9112 22.8992 25.7284 23.7902 25.3905C24.5577 25.1097 25.2515 24.6575 25.819 24.068C26.4062 23.496 26.8602 22.8009 27.1486 22.0325C27.4755 21.1362 27.6536 20.1922 27.6759 19.238C27.6759 18.019 27.7447 17.628 27.7447 14.5C27.7447 11.372 27.7447 10.981 27.6759 9.762V9.762ZM25.6127 19.1C25.6044 19.83 25.4726 20.5533 25.223 21.239C25.04 21.7395 24.746 22.1917 24.3633 22.5615C23.9916 22.9416 23.5418 23.2359 23.0452 23.424C22.3617 23.6744 21.6408 23.8066 20.9133 23.815C19.7671 23.8725 19.343 23.884 16.3285 23.884C13.3139 23.884 12.8898 23.884 11.7436 23.815C10.9882 23.8292 10.2359 23.7125 9.52 23.47C9.04522 23.2723 8.61605 22.9787 8.25917 22.6075C7.87873 22.2381 7.58846 21.7855 7.41098 21.285C7.13114 20.5894 6.97593 19.8497 6.9525 19.1C6.9525 17.95 6.88373 17.5245 6.88373 14.5C6.88373 11.4755 6.88372 11.05 6.9525 9.9C6.95764 9.15371 7.09342 8.41414 7.35367 7.715C7.55546 7.2296 7.86518 6.79691 8.25917 6.45C8.6074 6.05459 9.03777 5.74056 9.52 5.53C10.2187 5.27705 10.955 5.14484 11.6978 5.139C12.844 5.139 13.2681 5.07 16.2826 5.07C19.2971 5.07 19.7212 5.07 20.8674 5.139C21.595 5.14737 22.3159 5.27958 22.9994 5.53C23.5202 5.72395 23.9877 6.03927 24.3633 6.45C24.739 6.80326 25.0325 7.23514 25.223 7.715C25.4777 8.41527 25.6096 9.15455 25.6127 9.9C25.67 11.05 25.6815 11.4755 25.6815 14.5C25.6815 17.5245 25.67 17.95 25.6127 19.1ZM16.2826 8.6005C15.1201 8.60277 13.9844 8.9507 13.019 9.60033C12.0535 10.25 11.3016 11.1721 10.8583 12.2503C10.4151 13.3285 10.3002 14.5143 10.5284 15.658C10.7566 16.8016 11.3175 17.8517 12.1403 18.6756C12.9631 19.4995 14.0108 20.0603 15.1511 20.287C16.2914 20.5137 17.4731 20.3962 18.5469 19.9493C19.6207 19.5025 20.5383 18.7463 21.1839 17.7764C21.8295 16.8065 22.1741 15.6663 22.1741 14.5C22.1756 13.7239 22.0242 12.9551 21.7285 12.2379C21.4328 11.5207 20.9987 10.8692 20.4512 10.321C19.9037 9.77269 19.2535 9.33843 18.5381 9.04317C17.8227 8.74791 17.0562 8.59747 16.2826 8.6005V8.6005ZM16.2826 18.3295C15.5277 18.3295 14.7897 18.1049 14.1621 17.6841C13.5344 17.2633 13.0452 16.6652 12.7563 15.9655C12.4674 15.2657 12.3918 14.4958 12.5391 13.7529C12.6864 13.0101 13.0499 12.3277 13.5837 11.7921C14.1175 11.2566 14.7976 10.8918 15.538 10.7441C16.2784 10.5963 17.0458 10.6722 17.7433 10.962C18.4407 11.2518 19.0368 11.7427 19.4562 12.3724C19.8756 13.0022 20.0995 13.7426 20.0995 14.5C20.0995 15.0029 20.0007 15.5009 19.8089 15.9655C19.6171 16.4301 19.336 16.8523 18.9815 17.2079C18.6271 17.5635 18.2063 17.8455 17.7433 18.038C17.2802 18.2304 16.7838 18.3295 16.2826 18.3295V18.3295Z" fill="white"/>
</svg>
