<svg width="31" height="29" viewBox="0 0 31 29" fill="none" xmlns="http://www.w3.org/2000/svg">
<rect opacity="0.2" x="0.668945" width="29.901" height="29" rx="5" fill="white"/>
<path d="M4.65552 6.55556C4.65552 5.8148 4.91368 5.20369 5.42998 4.72222C5.94628 4.24073 6.6175 4 7.44358 4C8.25493 4 8.91137 4.23702 9.41293 4.71111C9.92923 5.2 10.1874 5.83702 10.1874 6.62222C10.1874 7.33333 9.93662 7.92591 9.43506 8.4C8.91876 8.88889 8.24017 9.13333 7.39933 9.13333H7.3772C6.56585 9.13333 5.90942 8.88889 5.40785 8.4C4.90629 7.91111 4.65552 7.29629 4.65552 6.55556ZM4.94318 26V11.1556H9.85548V26H4.94318ZM12.5772 26H17.4895V17.7111C17.4895 17.1926 17.5485 16.7926 17.6665 16.5111C17.873 16.0074 18.1865 15.5815 18.6069 15.2333C19.0273 14.8852 19.5547 14.7111 20.189 14.7111C21.8412 14.7111 22.6673 15.8296 22.6673 18.0667V26H27.5796V17.4889C27.5796 15.2963 27.0633 13.6333 26.0307 12.5C24.9981 11.3667 23.6335 10.8 21.9371 10.8C20.0341 10.8 18.5516 11.6222 17.4895 13.2667V13.3111H17.4673L17.4895 13.2667V11.1556H12.5772C12.6067 11.6296 12.6214 13.1037 12.6214 15.5778C12.6214 18.0518 12.6067 21.5259 12.5772 26Z" fill="white"/>
</svg>
