<svg width="31" height="29" viewBox="0 0 31 29" fill="none" xmlns="http://www.w3.org/2000/svg">
<rect opacity="0.2" x="0.503906" width="29.901" height="29" rx="5" fill="white"/>
<path d="M28.4119 6.51594C27.4379 6.93655 26.408 7.21459 25.354 7.34143C26.4659 6.68016 27.2992 5.63987 27.6992 4.41352C26.6543 5.03272 25.5105 5.46898 24.3174 5.70335C23.52 4.84248 22.458 4.26944 21.2982 4.0741C20.1383 3.87876 18.9461 4.07218 17.9086 4.62401C16.871 5.17584 16.0468 6.05487 15.5652 7.12324C15.0836 8.19161 14.9719 9.38889 15.2475 10.5273C13.1347 10.4209 11.0681 9.87331 9.1818 8.92C7.29552 7.9667 5.6318 6.62905 4.29872 4.99394C3.83114 5.80675 3.58545 6.72724 3.58608 7.66389C3.58442 8.53373 3.79885 9.39048 4.21029 10.1579C4.62173 10.9252 5.2174 11.5794 5.94427 12.0622C5.09944 12.0393 4.27265 11.8137 3.53425 11.4044V11.4689C3.54058 12.6876 3.9696 13.8668 4.74874 14.8069C5.52787 15.747 6.6093 16.3904 7.81009 16.6282C7.34785 16.7682 6.86795 16.8421 6.38481 16.8475C6.05037 16.8436 5.71677 16.8134 5.38711 16.7572C5.72906 17.8056 6.3908 18.7218 7.28024 19.3783C8.16968 20.0349 9.2426 20.3991 10.3497 20.4203C8.48024 21.8846 6.17216 22.6838 3.79339 22.6904C3.36028 22.6918 2.92751 22.666 2.49768 22.613C4.9264 24.174 7.75672 25.0027 10.6477 24.9992C12.6427 25.0198 14.6218 24.6445 16.4695 23.8952C18.3171 23.1459 19.9963 22.0376 21.4088 20.6351C22.8214 19.2325 23.939 17.5638 24.6965 15.7265C25.454 13.8891 25.8361 11.92 25.8205 9.93399C25.8205 9.71472 25.8205 9.48255 25.8205 9.25038C26.8372 8.49558 27.7141 7.57028 28.4119 6.51594Z" fill="white"/>
</svg>
